<svg width="20" height="20" viewBox="0 0 20 20" fill="none" xmlns="http://www.w3.org/2000/svg">
<path d="M13.0956 10.0003L19.8777 3.21793C20.0405 3.05511 20.0405 2.79119 19.8777 2.62838L17.3721 0.122163C17.2939 0.043987 17.1876 0 17.0773 0C16.9668 0 16.8607 0.043987 16.7825 0.122163L10 6.9047L3.21746 0.122163C3.06111 -0.0341889 2.78426 -0.0341889 2.62791 0.122163L0.122111 2.62838C-0.0407036 2.79119 -0.0407036 3.05511 0.122111 3.21793L6.90444 10.0003L0.122111 16.7826C-0.0407036 16.9454 -0.0407036 17.2093 0.122111 17.3721L2.62791 19.8781C2.70608 19.9563 2.8122 20.0003 2.92268 20.0003C3.03317 20.0003 3.13928 19.9563 3.21746 19.8781L10 13.0956L16.7825 19.8781C16.8607 19.9563 16.9668 20.0003 17.0773 20.0003C17.1876 20.0003 17.2939 19.9563 17.3721 19.8781L19.8779 17.3721C20.0407 17.2093 20.0407 16.9452 19.8779 16.7826L13.0956 10.0003Z" fill="lightblue"/>
</svg>
