<svg width="40" height="40" viewBox="0 0 40 40" fill="none" xmlns="http://www.w3.org/2000/svg">
<path d="M40 0.972516V39.0276C40 39.3094 39.9002 39.5418 39.7014 39.7252C39.5025 39.9085 39.2608 40 38.9765 40H1.02345C0.73916 40 0.497512 39.9087 0.298507 39.7252C0.0995023 39.5418 0 39.3094 0 39.0276V0.972516C0 0.690627 0.0995023 0.458069 0.298507 0.274841C0.497512 0.0916138 0.73916 0 1.02345 0H38.9764C39.2607 0 39.5024 0.0916138 39.7014 0.274841C39.9003 0.458069 40 0.690627 40 0.972516ZM27.8037 35.3489V21.2263H33.0063L33.2196 16.1523H27.8037V12.4314C27.8037 11.7266 27.9245 11.1699 28.1663 10.7612C28.4078 10.3524 28.9835 10.1622 29.8933 10.1903H33.0914L33.2193 5.45461C32.8213 5.39824 32.4164 5.363 32.0042 5.34891C31.592 5.33481 31.2153 5.31367 30.8739 5.28548C30.4759 5.25729 30.0779 5.2432 29.6798 5.2432C28.429 5.15863 27.3558 5.29253 26.4603 5.64489C25.5648 5.99725 24.8255 6.49056 24.2428 7.1248C23.6602 7.75905 23.2265 8.48492 22.9422 9.30239C22.658 10.1199 22.516 10.9514 22.516 11.7971V16.1523H18.8485V21.2263H22.516V35.3489H27.8037Z" fill="#6AB1E2"/>
</svg>
