<svg width="40" height="40" viewBox="0 0 40 40" fill="none" xmlns="http://www.w3.org/2000/svg">
<path d="M27.774 18.3008H30.2826V29.0899C30.2826 29.7486 29.7486 30.2826 29.0899 30.2826H10.9101C10.2514 30.2826 9.71735 29.7486 9.71735 29.0899V18.3008H12.226C12.1068 18.8485 12.0422 19.4166 12.0422 19.9999C12.0422 24.3949 15.6049 27.9577 19.9999 27.9577C24.3949 27.9577 27.9577 24.3949 27.9577 19.9999C27.9577 19.4166 27.8932 18.8484 27.774 18.3008ZM19.9999 25.3602C22.9602 25.3602 25.36 22.9604 25.36 20.0001C25.36 17.0398 22.9602 14.64 19.9999 14.64C17.0396 14.64 14.6398 17.0398 14.6398 20.0001C14.6398 22.9604 17.0396 25.3602 19.9999 25.3602ZM26.4219 14.4951H28.4634C29.0619 14.4951 29.5472 14.0098 29.5472 13.4113V11.37C29.5472 10.7715 29.062 10.2864 28.4634 10.2864H26.4219C25.8234 10.2864 25.3383 10.7715 25.3383 11.37V13.4115C25.3383 14.01 25.8234 14.4951 26.4219 14.4951ZM40 0V40H0V0H40ZM32.74 10.4734C32.74 8.69883 31.3013 7.26015 29.5267 7.26015H10.4734C8.69883 7.26015 7.26015 8.69883 7.26015 10.4734V29.5267C7.26015 31.3013 8.69883 32.74 10.4734 32.74H29.5267C31.3013 32.74 32.74 31.3013 32.74 29.5267V10.4734Z" fill="#6AB1E2"/>
</svg>
