<svg width="40" height="40" viewBox="0 0 40 40" fill="none" xmlns="http://www.w3.org/2000/svg">
<path d="M0 0V40H40V0H0ZM31.7091 14.3895C31.7183 14.6244 31.7233 14.8602 31.7233 15.0976C31.7233 24.6066 24.0143 32.3165 14.5043 32.3165C11.1192 32.3165 7.96145 31.3395 5.29935 29.6511C5.29874 29.651 5.29813 29.6509 5.2976 29.6508L5.29935 29.6511C10.5036 30.4272 14.1695 27.1156 14.1695 27.1156C9.53238 26.7549 8.61614 22.8958 8.61614 22.8958C10.2546 23.1731 11.2816 22.7841 11.2816 22.7841C6.06226 21.5631 6.50621 16.7868 6.50621 16.7868C7.71481 17.509 9.1159 17.5648 9.1159 17.5648C4.50713 13.5109 7.39498 9.56845 7.39498 9.56845C12.2269 15.42 19.3296 15.8181 19.7961 15.8373C19.6936 15.3975 19.6395 14.9394 19.6395 14.4688C19.6395 11.1337 22.3441 8.42988 25.6817 8.42988C27.4218 8.42988 28.9894 9.16453 30.0922 10.3415C30.3979 10.2558 30.6944 10.1633 30.9777 10.0692C32.6886 9.49859 33.9105 8.84636 33.9105 8.84636C33.6157 10.6131 31.4375 12.0957 31.2817 12.1998C31.2759 12.204 31.2726 12.2056 31.2726 12.2056C31.2759 12.2056 31.28 12.2048 31.2834 12.2048C32.9743 12.0357 34.7019 11.3177 34.7019 11.3177C34.1805 12.4137 32.0531 14.1188 31.7091 14.3895Z" fill="#6AB1E2"/>
</svg>
