<svg width="40" height="40" viewBox="0 0 40 40" fill="none" xmlns="http://www.w3.org/2000/svg">
<path fill-rule="evenodd" clip-rule="evenodd" d="M0 0V40H40V0H0ZM33.362 26.546C33.0226 28.0185 31.818 29.1058 30.368 29.2678C26.9356 29.6505 23.4603 29.653 19.9986 29.6505C16.5383 29.653 13.063 29.6505 9.62954 29.2678C8.17916 29.1059 6.97468 28.0185 6.63701 26.546C6.15385 24.4496 6.15385 22.1592 6.15385 19.9999C6.15385 17.8406 6.15956 15.5513 6.64229 13.4549C6.97996 11.9809 8.18488 10.895 9.63341 10.7332C13.0673 10.3495 16.544 10.348 20.0043 10.3495C23.4643 10.348 26.9399 10.3495 30.3734 10.7332C31.8237 10.895 33.0282 11.9809 33.3674 13.4549C33.8505 15.5513 33.8462 17.8406 33.8462 19.9999C33.8462 22.1592 33.8447 24.4496 33.362 26.546Z" fill="#6AB1E2"/>
<path fill-rule="evenodd" clip-rule="evenodd" d="M0 9.15771C2.94215 7.632 5.85829 6.11903 8.80334 4.59226C5.84976 3.05116 2.93398 1.53108 0 0V9.15771Z" transform="translate(16.4268 15.1411)" fill="#6AB1E2"/>
</svg>
